<svg width="49" height="49" viewBox="0 0 49 49" fill="none" xmlns="http://www.w3.org/2000/svg">
<g clip-path="url(#clip0_111_587)">
<path fill-rule="evenodd" clip-rule="evenodd" d="M7.26925 20.6774C7.26925 13.1033 13.4093 6.96316 20.9835 6.96316C28.5577 6.96316 34.6978 13.1033 34.6978 20.6774C34.6978 28.2516 28.5577 34.3917 20.9835 34.3917C13.4093 34.3917 7.26925 28.2516 7.26925 20.6774ZM20.9835 0.106018C9.62225 0.106018 0.412109 9.31616 0.412109 20.6774C0.412109 32.0387 9.62225 41.2489 20.9835 41.2489C25.4262 41.2489 29.54 39.8404 32.9027 37.4459L42.5592 47.1025C43.8981 48.4413 46.069 48.4413 47.4079 47.1025C48.7467 45.7636 48.7467 43.5926 47.4079 42.2538L37.7517 32.5974C40.1465 29.2345 41.555 25.1205 41.555 20.6774C41.555 9.31616 32.3448 0.106018 20.9835 0.106018Z" fill="white"/>
</g>
<defs>
<clipPath id="clip0_111_587">
<rect width="48" height="48" fill="white" transform="translate(0.412109 0.106018)"/>
</clipPath>
</defs>
</svg>
