<svg width="44" height="44" viewBox="0 0 44 44" fill="none" xmlns="http://www.w3.org/2000/svg">
<path fill-rule="evenodd" clip-rule="evenodd" d="M44 22.4C44 28.1287 41.7243 33.6227 37.6736 37.6735C33.6228 41.7243 28.1287 44 22.4 44C16.6714 44 11.1773 41.7243 7.12654 37.6735C3.07576 33.6227 0.800049 28.1287 0.800049 22.4C0.800049 16.6713 3.07576 11.1773 7.12654 7.12648C11.1773 3.0757 16.6714 0.799988 22.4 0.799988C28.1287 0.799988 33.6228 3.0757 37.6736 7.12648C41.7243 11.1773 44 16.6713 44 22.4V22.4ZM27.8 14.3C27.8 15.7322 27.2311 17.1057 26.2184 18.1184C25.2057 19.1311 23.8322 19.7 22.4 19.7C20.9679 19.7 19.5944 19.1311 18.5817 18.1184C17.569 17.1057 17 15.7322 17 14.3C17 12.8678 17.569 11.4943 18.5817 10.4816C19.5944 9.46891 20.9679 8.89999 22.4 8.89999C23.8322 8.89999 25.2057 9.46891 26.2184 10.4816C27.2311 11.4943 27.8 12.8678 27.8 14.3V14.3ZM22.4 25.1C19.8151 25.0995 17.2843 25.8411 15.1085 27.2368C12.9326 28.6324 11.2033 30.6235 10.1258 32.9732C11.6451 34.7406 13.5286 36.1585 15.6472 37.1298C17.7658 38.101 20.0694 38.6025 22.4 38.6C24.7307 38.6025 27.0343 38.101 29.1529 37.1298C31.2715 36.1585 33.155 34.7406 34.6742 32.9732C33.5968 30.6235 31.8675 28.6324 29.6916 27.2368C27.5158 25.8411 24.985 25.0995 22.4 25.1V25.1Z" fill="#58F4D8"/>
</svg>
