<svg width="29" height="31" viewBox="0 0 29 31" fill="none" xmlns="http://www.w3.org/2000/svg">
<path d="M6.04192 18.0833H21.9142C23.1381 18.0833 23.75 18.0833 24.2371 17.8394C24.6663 17.6245 25.0268 17.2796 25.274 16.8474C25.5545 16.3568 25.6221 15.7066 25.7573 14.4064L26.4641 7.60576C26.5054 7.20862 26.5261 7.01005 26.4663 6.85635C26.4139 6.72137 26.3201 6.6094 26.2004 6.53875C26.0641 6.45831 25.8772 6.45831 25.5034 6.45831H5.43775M2.41675 2.58331H3.92528C4.24503 2.58331 4.40491 2.58331 4.52999 2.64832C4.6401 2.70554 4.73135 2.79718 4.79165 2.91109C4.86014 3.04048 4.87012 3.21105 4.89006 3.55219L5.9851 22.2811C6.00505 22.6222 6.01502 22.7928 6.08351 22.9222C6.14381 23.0361 6.23506 23.1278 6.34518 23.185C6.47026 23.25 6.63013 23.25 6.94988 23.25H22.9584M9.06258 27.7708H9.07467M19.9376 27.7708H19.9497M9.66675 27.7708C9.66675 28.1275 9.39625 28.4166 9.06258 28.4166C8.72891 28.4166 8.45841 28.1275 8.45841 27.7708C8.45841 27.4141 8.72891 27.125 9.06258 27.125C9.39625 27.125 9.66675 27.4141 9.66675 27.7708ZM20.5417 27.7708C20.5417 28.1275 20.2713 28.4166 19.9376 28.4166C19.6039 28.4166 19.3334 28.1275 19.3334 27.7708C19.3334 27.4141 19.6039 27.125 19.9376 27.125C20.2713 27.125 20.5417 27.4141 20.5417 27.7708Z" stroke="#58F4D8" stroke-width="2" stroke-linecap="round" stroke-linejoin="round"/>
</svg>
